<svg xmlns="http://www.w3.org/2000/svg" viewBox="0 0 140 140"><defs><linearGradient id="l" x1="0" y1="1" x2="1" y2="0"><stop stop-color="#0B6B37"/><stop offset=".6" stop-color="#3DCB57"/><stop offset="1" stop-color="#C8F25A"/></linearGradient><filter id="s" x="-30%" y="-30%" width="160%" height="160%"><feDropShadow dx="0" dy="12" stdDeviation="8" flood-color="#000" flood-opacity=".24"/></filter></defs><g filter="url(#s)" fill="url(#l)"><path d="M65 110C51 76 38 49 19 20c28 16 44 36 54 73z"/><path d="M70 110C70 74 69 44 73 11c15 31 16 60 4 99z"/><path d="M75 111c15-37 29-58 55-80-10 34-26 61-55 80z"/><path d="M70 111c-12-26-22-43-43-58 27 5 43 22 43 58z"/><path d="M73 111c17-24 35-39 57-47-14 25-32 41-57 47z"/></g></svg>